<?xml version="1.0" encoding="UTF-8" standalone="no"?>
<svg width="740px" height="760px" viewBox="0 0 740 760" version="1.1" xmlns="http://www.w3.org/2000/svg" xmlns:xlink="http://www.w3.org/1999/xlink" xmlns:sketch="http://www.bohemiancoding.com/sketch/ns">
    <title>bigger-hlb-flat-app-icon</title>
    <description>Created with Sketch (http://www.bohemiancoding.com/sketch)</description>
    <defs x2="50%" x1="50%">
        <linearGradient y1="-13.010992%" y2="115.354742%" id="linearGradient-1">
            <stop stop-color="#487FA6" offset="0%"></stop>
            <stop stop-color="#91BFCF" offset="38.1195448%"></stop>
            <stop stop-color="#90A4D6" offset="81.9751601%"></stop>
            <stop stop-color="#5C72AC" offset="100%"></stop>
        </linearGradient>
        <linearGradient y1="29.0195346%" y2="100%" id="linearGradient-2">
            <stop stop-color="#FFE060" offset="0%"></stop>
            <stop stop-color="#FECE02" offset="100%"></stop>
        </linearGradient>
        <linearGradient y1="0%" y2="100%" id="linearGradient-3">
            <stop stop-color="#FF7D5C" offset="0%"></stop>
            <stop stop-color="#FB296A" offset="100%"></stop>
        </linearGradient>
    </defs>
    <g id="Page 1" stroke="none" stroke-width="1" fill="none" fill-rule="evenodd">
        <path d="M-152,-136 L-152,896 L884,896 L884,-136 L-152,-136 Z M-152,-136" id="background" fill="url(#linearGradient-1)"></path>
        <g id="bb" transform="translate(-16.000000, -64.000000)" opacity="0.876917614">
            <path d="M415.5,197 C469.900051,197 514,152.900051 514,98.5 C514,44.0999494 469.900051,0 415.5,0 C361.099949,0 317,44.0999494 317,98.5 C317,152.900051 361.099949,197 415.5,197 Z M415.5,197" id="Oval" fill="#6BA1E7"></path>
            <path d="M146,361 C207.855895,361 258,310.855895 258,249 C258,187.144105 207.855895,137 146,137 C84.144105,137 34,187.144105 34,249 C34,310.855895 84.144105,361 146,361 Z M146,361" id="Oval" fill="#A4C9F5"></path>
            <path d="M553.5,394 C607.900051,394 652,349.900051 652,295.5 C652,241.099949 607.900051,197 553.5,197 C499.099949,197 455,241.099949 455,295.5 C455,349.900051 499.099949,394 553.5,394 Z M553.5,394" id="Oval" fill="#79C5D2"></path>
            <path d="M549,781 C620.244736,781 678,723.244736 678,652 C678,580.755264 620.244736,523 549,523 C477.755264,523 420,580.755264 420,652 C420,723.244736 477.755264,781 549,781 Z M549,781" id="Oval" fill="#95E0F3"></path>
            <path d="M177,935 C274.754406,935 354,855.754406 354,758 C354,660.245594 274.754406,581 177,581 C79.2455944,581 0,660.245594 0,758 C0,855.754406 79.2455944,935 177,935 Z M177,935" id="Oval" fill="#98ADE6"></path>
        </g>
        <g id="Group" transform="translate(185.000000, 170.000000)">
            <path d="M188.5,0.33203125 C95.8789029,0.332045235 84.9351719,1.94502376 84.9351719,1.94502376 C40.7881955,3.63224055 3.69047237,40.8003275 2.40030375,84.9561307 C2.40030375,84.9561307 0.96875,100.650393 0.96875,186.166016 C0.968745772,284.150394 2.34198504,292.063391 2.34198504,292.063391 C3.80996617,336.211161 40.7889894,373.522008 84.9375751,375.008663 C84.9375751,375.008663 99.5820334,376.667969 188.5,376.667969 C283.082035,376.667969 292.06667,375.079465 292.06667,375.079465 C336.212629,373.378723 373.475621,336.221337 374.894807,292.064056 C374.894807,292.064056 376.46875,279.800781 376.46875,186.166016 C376.468746,96.3007803 374.933985,84.938919 374.933985,84.938919 C373.31359,40.7898731 336.218022,3.45778615 292.060416,1.96670912 C292.060416,1.96670912 279.378904,0.33203125 188.5,0.33203125 Z M188.5,0.33203125" id="app square" fill="url(#linearGradient-2)"></path>
            <g id="cloth" fill="#FBFFCC">
                <path d="M224.222512,358.211728 L153.9864,358.211728 L-4.5,295 L-4.5,378 L385.5,378 L385.5,295 L224.222512,358.211728 Z M224.222512,358.211728" id="Rectangle 6"></path>
            </g>
            <g id="mustache" transform="translate(113.000000, 287.000000)" fill="#000000">
                <path d="M77,0 C114.173167,0 145.27277,20.3364656 153.100381,47.5593364 C145.272775,33.5016193 114.17317,23 77,23 C39.8268296,23 8.72722456,33.5016193 0.899619075,47.5593364 C8.72722992,20.3364656 39.8268328,0 77,0 Z M77,47.5593364 C99.716903,47.5593364 114.241556,56.0093011 114.241556,56.0093011 C118.268805,57.8059773 121.48227,62.9864328 121.48227,67.4064411 L121.48227,69.5562033 C121.48227,73.9722894 117.903714,77.5593364 113.489343,77.5593364 L40.510657,77.5593364 C36.1015742,77.5593364 32.5177305,73.9762117 32.5177305,69.5562033 L32.5177305,67.4064411 C32.5177305,62.990355 35.7687923,57.9226786 39.7791803,56.0962297 C39.7791803,56.0962297 55.2346333,47.5593371 77,47.5593364 Z M77,47.5593364" id="Rectangle 1"></path>
            </g>
            <g id="right eye" transform="translate(30.000000, 177.000000)">
                <path d="M66.5,73 C102.738281,73.3398438 132.117188,62.7578125 132.117188,38.1445313 C132.117186,13.53125 103.226938,0.70703125 66.5,0.70703125 C29.7730623,0.70703125 1.94140625,6.7734375 0,34 C0,55.5391063 24.1484375,73 66.5,73 Z M66.5,73" id="Oval 6" fill="#EEEEEE"></path>
                <path d="M45.5009766,8.69921867 C45.5009766,8.69921867 56.1445306,3.63574227 75.9296875,7.13671875 C95.7148438,10.6376953 104.161132,18.6474613 102.594727,22.4140625 C101.02832,26.1806637 88.6552737,22.3653872 74.0644531,18.2529297 C59.4736328,14.1404721 45.5009766,8.69921867 45.5009766,8.69921867 Z M45.5009766,8.69921867" id="Path 4" fill="#000000"></path>
            </g>
            <g id="left eye" transform="translate(279.500000, 214.000000) scale(-1, 1) translate(-279.500000, -214.000000) translate(213.000000, 177.000000)">
                <path d="M66.5,73 C102.738281,73.3398438 132.117188,62.7578125 132.117188,38.1445313 C132.117186,13.53125 103.226938,0.70703125 66.5,0.70703125 C29.7730623,0.70703125 1.94140625,6.7734375 0,34 C0,55.5391063 24.1484375,73 66.5,73 Z M66.5,73" id="Oval 6" fill="#EEEEEE"></path>
                <path d="M45.5009766,8.69921867 C45.5009766,8.69921867 56.1445306,3.63574227 75.9296875,7.13671875 C95.7148438,10.6376953 104.161132,18.6474613 102.594727,22.4140625 C101.02832,26.1806637 88.6552737,22.3653872 74.0644531,18.2529297 C59.4736328,14.1404721 45.5009766,8.69921867 45.5009766,8.69921867 Z M45.5009766,8.69921867" id="Path 4" fill="#000000"></path>
            </g>
            <g id="hat" fill="url(#linearGradient-3)">
                <path d="M-28,0 L-28,112 L409,112 L409,0 L-28,0 Z M-28,0" id="Oval 4"></path>
            </g>
            <path d="M41.1187216,140.546973 C41.1187216,140.546973 59.8811301,137.090624 71.5193139,137.090622 C83.1574977,137.09062 107.940391,147.290909 122.427367,155.216215 C136.914341,163.141522 142.467906,143.638788 131.140253,138.773793 C119.812601,133.908798 94.0429799,121.400901 74.637006,121.400901 C55.2310321,121.400901 41.1187216,140.546973 41.1187216,140.546973 Z M336.939277,140.546973 C336.939277,140.546973 318.176869,137.090624 306.538685,137.090622 C294.900501,137.09062 270.117608,147.290909 255.630632,155.216215 C241.143658,163.141522 235.590093,143.638788 246.917746,138.773793 C258.245398,133.908798 284.015019,121.400901 303.420993,121.400901 C322.826967,121.400901 336.939277,140.546973 336.939277,140.546973 Z M336.939277,140.546973" id="Path 2" fill="#000000"></path>
            <text id="hlb" fill="#FFFFFF" font-family="Helvetica Neue" font-size="60" font-weight="260" sketch:alignment="middle" x="155" y="468.06014">
                <tspan>hlb</tspan>
            </text>
        </g>
    </g>
</svg>